<svg height="512" viewBox="0 0 512 512" width="512" xmlns="http://www.w3.org/2000/svg"><g><g fill="#537ec2"><path d="m467.65209 351.14323a230.91916 230.91916 0 0 1 -15.32754 28.52662 8.019 8.019 0 0 1 -11.76011 2.042l-18.94466-14.99429a8.02823 8.02823 0 0 1 -1.81655-10.51444 191.768 191.768 0 0 0 10.49647-19.57523 8.02936 8.02936 0 0 1 9.90077-4.26195l22.79137 7.878a8.021 8.021 0 0 1 4.66025 10.89929z"/><path d="m486.29159 284.26912a229.93455 229.93455 0 0 1 -5.0729 27.63731 8.01189 8.01189 0 0 1 -10.39011 5.6572l-22.79321-7.87663a8.029 8.029 0 0 1 -5.155-9.47008 190.18425 190.18425 0 0 0 3.44-18.71186 8.02633 8.02633 0 0 1 8.19871-7.01365l24.08974.78819a8.0155 8.0155 0 0 1 7.68277 8.98952z"/><path d="m479.377 251.29958-25.77115-.8432a6.14763 6.14763 0 0 1 -5.93645-5.79125l-.00657-.11408a6.14833 6.14833 0 0 1 5.33475-6.44874l25.55908-3.36879a8.00872 8.00872 0 0 1 9.0391 7.4727q.01878.31935.03667.63892a8.01 8.01 0 0 1 -8.25543 8.45444z"/><path d="m391.19395 392.32528a191.99483 191.99483 0 0 1 -327.16811-139.50758c1.69928-104.57221 86.99693-188.8177 191.97416-188.8177a191.07155 191.07155 0 0 1 109.74585 34.44336l-1.01856.877a12.00012 12.00012 0 0 0 5.70865 20.9051l41.81211 7.50848a11.99987 11.99987 0 0 0 14.116-12.15266l-1.20975-42.46428a12 12 0 0 0 -19.82447-8.7522l-8.47143 7.2934a231.99786 231.99786 0 0 0 -372.81688 188.77557c2.36324 126.08375 105.3098 227.56623 231.95848 227.56623a231.29513 231.29513 0 0 0 165.40325-69.31792 8.0148 8.0148 0 0 0 -.721-11.90988l-18.94025-14.99083a7.96989 7.96989 0 0 0 -10.54805.54391z"/></g><rect fill="#f57a08" height="203.647" rx="11.314" transform="matrix(.707 -.707 .707 .707 -10.039 295.765)" width="22.627" x="340.686" y="58.177"/><rect fill="#f57a08" height="203.647" rx="11.314" transform="matrix(.707 -.707 .707 .707 -202.039 216.236)" width="22.627" x="148.686" y="250.177"/><path d="m408 232-32.32007 32.32007a39.964 39.964 0 0 1 -37.28 10.68994l-44.98-10.38013a24.01012 24.01012 0 0 0 -28.79 28.79l10.38013 44.98a39.96413 39.96413 0 0 1 -10.68994 37.28l-32.32012 32.32012-128-128 32.32007-32.32007a39.964 39.964 0 0 1 37.28-10.68994l44.98 10.38013a24.01012 24.01012 0 0 0 28.79-28.79l-10.38007-44.98002a39.964 39.964 0 0 1 10.68994-37.28l32.32006-32.3201 85.16992 85.16992 5.66016 5.66016z" fill="#e7f2da"/><path d="m259.43255 199.72074 3.52253 15.26461a39.74487 39.74487 0 0 1 -7.64063 33.86133c-9.37711 9.27845-10.82329 20.52831-6.51168 31.15322a40.1123 40.1123 0 0 1 39.11716-31.998 40.47762 40.47762 0 0 1 9.09473 1.043l44.98144 10.37988a23.99326 23.99326 0 0 0 22.36719-6.415l32.32324-32.32325-60.68653-60.68653c-36.25-4.75-85.5 4.5-76.56745 39.72074z" fill="#f3b73f"/><path d="m152 328 68.68653 68.68652 32.32324-32.32324a23.848 23.848 0 0 0 6.79077-20.36328c-6.46721 9.33332-26.96721 9.16666-22.96721-16-16 16-44.83333 40-84.83333 0z" fill="#f3b73f"/><circle cx="240" cy="304" fill="#f3b73f" r="8"/><path d="m370.83008 194.83008c-20.9502 20.95-39.9502 27.22-55.76 27.22-15.92017 0-28.62012-6.3501-36.86011-10.47a4.00265 4.00265 0 0 1 3.58008-7.16016c15.87988 7.93994 45.41992 22.71 83.37988-15.25z" fill="#e0802b"/><path d="m224.08008 267.99805a44.51247 44.51247 0 0 1 -9.99512-1.14551l-30.68066-7.08008a3.99989 3.99989 0 1 1 1.79882-7.79492l30.68165 7.08008a36.482 36.482 0 0 0 8.19531.94043 4 4 0 0 1 0 8z" fill="#b1cdb4"/><path d="m147.63672 262.99023a4 4 0 0 1 -2.82813-6.8291 27.99314 27.99314 0 0 1 26.09473-7.4834 3.9999 3.9999 0 0 1 -1.79883 7.79493 19.99345 19.99345 0 0 0 -18.63965 5.34668 3.99009 3.99009 0 0 1 -2.82812 1.17089z" fill="#b1cdb4"/></g></svg>
