<?xml version="1.0" encoding="UTF-8" standalone="no"?>
<svg
   xmlns:svg="http://www.w3.org/2000/svg"
   xmlns="http://www.w3.org/2000/svg"
   style="overflow:visible"
   height="256"
   width="256"
   id="svg2"
   xml:space="preserve"
   enable-background="new 0 0 76.11 100"
   overflow="visible"
   viewBox="0 0 256 256"
   y="0px"
   x="0px"
   version="1.0"><defs
     id="defs7" /><ellipse
     ry="113.89831"
     rx="112.70566"
     cy="128"
     cx="128"
     id="path4158"
     style="fill:#00e1ec" /><path
     style="overflow:visible;fill:#00004e;fill-opacity:1;fill-rule:evenodd;stroke:none;stroke-width:2;stroke-miterlimit:4;stroke-dasharray:none;stroke-opacity:1"
     d="m 186.73725,192.37096 c -2.09405,0.11836 -3.69055,1.24951 -5.32587,2.1769 -1.62815,0.92332 -3.2948,1.64466 -5.52931,0.9634 -1.45594,0 -2.91188,0 -4.36783,0 -1.45567,0 -2.91134,0 -4.36702,0 -1.45567,0 -2.91134,0 -4.36701,0 -0.0986,-1.31851 -0.002,-2.68025 0.0369,-4.02897 0.0388,-1.36663 0.0172,-2.7199 -0.32982,-4.00129 -1.44201,0.57416 -2.26699,-0.66926 -2.41706,-1.99523 -0.15897,-1.40463 0.43943,-2.90188 1.86404,-2.42926 1.26805,0.15887 2.8246,0.22474 3.96241,-0.19891 1.19244,-0.44399 1.92498,-1.42561 1.38357,-3.40129 -0.0268,-1.81376 -0.0179,-3.63157 -0.005,-5.44989 0.0134,-1.81733 0.0313,-3.63517 0.0226,-5.44998 -0.009,-1.82015 -0.0442,-3.63724 -0.13774,-5.44774 -0.67338,-1.12628 -2.10969,-1.04715 -3.50162,-0.89991 -1.56214,0.16526 -3.06838,0.41631 -3.37761,-0.8544 -0.42902,-1.76038 0.51094,-2.14409 1.41049,-2.716 0.7745,-0.4924 1.51905,-1.12432 1.33415,-2.89446 -0.0975,-1.81998 1.38641,-1.95085 2.66799,-2.26184 1.21099,-0.29385 2.24136,-0.74853 1.5863,-2.94108 0.52229,-1.81919 0.0397,-3.04539 -0.94676,-3.72467 -0.96272,-0.66291 -2.4054,-0.80498 -3.86258,-0.46903 -1.77691,0.0195 -3.55554,0.0196 -5.33479,0.0129 -1.77808,-0.007 -3.55677,-0.02 -5.33492,-0.0274 -1.77945,-0.008 -3.55837,-0.009 -5.3356,0.009 -1.77985,0.0174 -3.55801,0.0534 -5.33335,0.121 -0.65177,0.7774 -1.1326,2.49732 -1.10599,4.06823 0.0276,1.63191 0.60289,3.10298 2.10301,3.18957 1.63892,-0.52552 2.09765,0.59413 2.38339,1.95492 0.28049,1.33578 0.39429,2.90391 1.29406,3.37641 1.60025,-0.22705 1.9514,1.22896 1.46948,2.34631 -0.41882,0.97102 -1.46681,1.68629 -2.87094,0.81891 -1.80658,-0.009 -3.61338,-0.012 -5.4203,-0.0126 -1.80655,-5.9e-4 -3.61324,0.002 -5.41998,0.005 -1.80683,0.003 -3.61371,0.009 -5.42057,0.0126 -1.80696,0.004 -3.6139,0.008 -5.42073,0.009 -1.80697,8.6e-4 -3.61385,-3e-5 -5.42052,-0.005 -1.80713,-0.005 -3.61405,-0.015 -5.42072,-0.0307 -1.8071,-0.0156 -3.61394,-0.0373 -5.42042,-0.0668 -2.52697,-0.61433 -3.33655,-2.48384 -3.5603,-4.68552 -0.21548,-2.12042 0.11242,-4.54895 -0.0271,-6.461 0.005,-2.06728 0.008,-4.13464 0.0106,-6.20209 0.002,-2.06722 0.003,-4.13453 0.003,-6.2019 -2e-4,-2.06709 -0.002,-4.13425 -0.004,-6.20144 -0.002,-2.06718 -0.005,-4.13439 -0.006,-6.20162 -0.003,-2.06696 -0.005,-4.13395 -0.008,-6.20092 -0.003,-2.06703 -0.005,-4.13407 -0.007,-6.20108 -0.002,-2.06708 -0.004,-4.13414 -0.004,-6.20115 -4.7e-4,-2.0671 -5e-5,-4.13416 0.002,-6.20114 0.002,-2.067115 0.005,-4.134155 0.009,-6.201105 0.005,-2.06749 0.0108,-4.13489 0.0191,-6.20217 0.008,-2.06747 0.0185,-4.13483 0.0312,-6.20206 0.0127,-2.06722 0.0277,-4.13431 0.0454,-6.20124 0.56209,-1.73855 1.59591,-2.64893 2.86986,-3.10903 1.2593,-0.45481 2.75324,-0.46965 4.25809,-0.40952 1.49461,0.0597 2.99998,0.19338 4.29696,0.0434 1.72188,0 3.44377,0 5.16566,0 1.72176,0 3.44351,0 5.16527,0 1.72165,0 3.44331,0 5.16496,0 1.7218,0 3.44361,0 5.16542,0 1.72181,0 3.44362,0 5.16543,0 -0.42338,1.67791 -0.16412,3.10907 0.61695,4.00409 0.78488,0.89939 2.0967,1.25738 3.77225,0.78031 1.81106,-0.0194 3.62385,-0.0195 5.43724,-0.0128 1.81222,0.007 3.62502,0.0199 5.4373,0.0273 1.8136,0.007 3.62667,0.009 5.43806,-0.008 1.81406,-0.0172 3.62643,-0.0531 5.436,-0.12044 0.66141,-0.77122 1.14472,-2.49248 1.11688,-4.06455 -0.0289,-1.63151 -0.60834,-3.10233 -2.1106,-3.18379 -1.81132,-0.29583 -3.46312,-1.08724 -5.03975,-2.13824 -1.49132,-0.99413 -2.91538,-2.22051 -4.34356,-3.479418 -1.3941,-1.22886 -2.79212,-2.48871 -4.26044,-3.59378 -1.50351,-1.13155 -3.08074,-2.10082 -4.80296,-2.70834 -1.63945,-0.91096 -3.30187,-1.78607 -4.98497,-2.62235 -1.67826,-0.83387 -3.37705,-1.62914 -5.09408,-2.38284 -1.71468,-0.75276 -3.44754,-1.46397 -5.19629,-2.13079 -1.74799,-0.66653 -3.51186,-1.28871 -5.28931,-1.86359 -1.77822,-0.57513 -3.57004,-1.10293 -5.37316,-1.58044 -1.80456,-0.477902 -3.62044,-0.905441 -5.44533,-1.279669 -1.82709,-0.374678 -3.66322,-0.695917 -5.50607,-0.960757 -1.84403,-0.265008 -3.6948,-0.473545 -5.55,-0.622643 -1.8552,-0.149098 -3.71481,-0.238758 -5.576541,-0.266011 -1.99602,0.04707 -3.98465,0.272926 -5.94462,0.663589 -1.95768,0.390209 -3.88678,0.944843 -5.76608,1.649978 -1.87611,0.703943 -3.70261,1.557873 -5.45838,2.547943 -1.75628,0.99035 -3.4418,2.11691 -5.03546,3.36582 -1.59827,1.25253 -3.10415,2.62811 -4.49633,4.11276 -1.39851,1.4914 -2.68229,3.09286 -3.82977,4.7902 -1.15102,1.7026 -2.16488,3.501668 -3.01981,5.382898 -0.85176,1.87429 -1.54576,3.83013 -2.06045,5.85339 -0.50621,1.98994 -0.83897,4.04509 -0.97777,6.15197 -0.0175,2.01038 -0.0329,4.02085 -0.0464,6.0314 -0.0135,2.01047 -0.0252,4.02101 -0.0352,6.03162 -0.01,2.0104 -0.0183,4.02088 -0.0252,6.0314 -0.007,2.01058 -0.0122,4.021225 -0.0163,6.031905 -0.004,2.0106 -0.007,4.02125 -0.009,6.03193 -0.002,2.0106 -0.002,4.02124 -0.002,6.03189 2.6e-4,2.0106 0.001,4.02121 0.003,6.03183 0.002,2.01056 0.004,4.02113 0.008,6.03169 0.003,2.01052 0.007,4.02104 0.0106,6.03153 0.004,2.01073 0.008,4.02144 0.0125,6.03211 0.004,2.01055 0.009,4.02106 0.0133,6.03153 0.004,2.01065 0.009,4.02126 0.0129,6.03181 0.004,2.01055 0.008,4.02104 0.0113,6.03146 0.0526,2.0762 0.33152,4.0967 0.80905,6.04511 0.48688,1.9866 1.18025,3.89826 2.05072,5.7176 0.87141,1.82131 1.92033,3.55012 3.11727,5.16896 1.18936,1.60858 2.52487,3.1086 3.97765,4.48296 1.44423,1.36628 3.00434,2.60836 4.65194,3.70945 1.64649,1.10036 3.38034,2.05991 5.17322,2.86189 1.80254,0.80629 3.66474,1.45332 5.5578,1.92404 1.926,0.54582 3.86255,0.95135 5.80549,1.23268 1.96377,0.28435 3.93407,0.44183 5.90662,0.48906 1.973841,0.0473 3.949931,-0.0159 5.923961,-0.17274 1.9651,-0.15614 3.92817,-0.40518 5.88495,-0.73067 1.94713,-0.32388 3.88804,-0.72346 5.81855,-1.18254 1.92577,-0.45796 3.8412,-0.97513 5.74212,-1.53544 1.90649,-0.56195 3.79841,-1.1673 5.67154,-1.79981 1.89244,-0.63904 3.76572,-1.3058 5.61553,-1.98359 1.74303,-0.73742 3.16849,-1.58101 4.29129,-1.90338 1.46744,-0.42134 2.41788,0.0476 2.88459,2.80744 0.89764,0.42754 2.40859,0.12527 3.71592,0.0117 1.52366,-0.13233 2.77075,-0.009 2.44798,1.82622 0.48698,1.85527 -0.69624,2.34566 -1.68895,3.03272 -0.87937,0.60861 -1.60925,1.37154 -0.89632,3.37418 0.19505,1.46727 0.25146,2.78987 -0.15083,3.63394 -0.42242,0.88631 -1.35059,1.24498 -3.15505,0.68945 -1.64845,0 -3.29691,0 -4.94537,0 -1.64815,0 -3.29631,0 -4.94446,0 -1.64816,0 -3.29631,0 -4.94447,0 -1.15055,-1.97313 -2.80665,-2.91732 -4.5531,-3.11411 -1.83974,-0.20729 -3.77974,0.41479 -5.33464,1.53716 -1.61831,1.16813 -2.81947,2.87817 -3.05628,4.75908 -0.2131,1.69248 0.35459,3.5233 2.10174,5.22216 1.50275,1.70654 2.94684,2.21292 4.36382,2.10872 1.56846,-0.11533 3.10371,-0.97877 4.64854,-1.79073 1.55013,-0.81473 3.1099,-1.57763 4.72256,-1.48084 1.69476,0 3.38952,0 5.08428,0 1.69446,0 3.38891,0 5.08336,0 1.69445,0 3.3889,0 5.08336,0 0.0976,1.32005 9e-4,2.68262 -0.0366,4.03237 -0.0383,1.367 -0.0167,2.72086 0.32688,4.0041 1.84295,0.21764 3.70981,0.30068 5.58767,0.32175 1.85929,0.0209 3.72936,-0.0191 5.59771,-0.0492 1.87201,-0.0302 3.74227,-0.0506 5.59821,0.01 1.06252,-0.91658 1.1628,-2.40343 1.08008,-3.99499 -0.0763,-1.46758 -0.30816,-3.02419 -0.0847,-4.30479 1.99968,-0.0147 4.00811,-0.0204 6.02057,-0.0217 2.00442,-0.002 4.01284,0.002 6.02059,0.003 2.00873,0.002 4.01679,0.003 6.01952,-6.2e-4 1.04415,1.81203 2.59444,2.75332 4.2636,3.02999 1.72909,0.2866 3.58574,-0.14001 5.13946,-1.05073 1.60905,-0.94315 2.8932,-2.40549 3.3743,-4.13257 0.44274,-1.58943 0.20535,-3.40307 -1.08489,-5.24257 -0.65935,-0.95264 -1.54987,-1.70326 -2.55522,-2.21363 -1.00487,-0.51012 -2.12445,-0.78024 -3.2426,-0.77222 0,0 0,1e-5 0,1e-5"
     id="path4-3" /></svg>
